HIERARCHY
ROOT root
{
	OFFSET 0.000000 0.000000 0.000000
	CHANNELS 6 Xposition Yposition Zposition Zrotation Yrotation Xrotation
	JOINT lhip
	{
		OFFSET 0.058581 -0.082280 -0.017664
		CHANNELS 3 Zrotation Yrotation Xrotation
		JOINT lknee
		{
			OFFSET 0.043451 -0.386469 0.008037
			CHANNELS 3 Zrotation Yrotation Xrotation
			JOINT lankle
			{
				OFFSET -0.014790 -0.426874 -0.037428
				CHANNELS 3 Zrotation Yrotation Xrotation
				JOINT ltoe
				{
					OFFSET 0.041054 -0.060286 0.122042
					CHANNELS 3 Zrotation Yrotation Xrotation
					End Site
					{
						OFFSET 0.000000 0.000000 0.000000
					}
				}
			}
		}
	}
	JOINT rhip
	{
		OFFSET -0.060310 -0.090513 -0.013543
		CHANNELS 3 Zrotation Yrotation Xrotation
		JOINT rknee
		{
			OFFSET -0.043257 -0.383688 -0.004843
			CHANNELS 3 Zrotation Yrotation Xrotation
			JOINT rankle
			{
				OFFSET 0.019056 -0.420046 -0.034562
				CHANNELS 3 Zrotation Yrotation Xrotation
				JOINT rtoe
				{
					OFFSET -0.034840 -0.062106 0.130323
					CHANNELS 3 Zrotation Yrotation Xrotation
					End Site
					{
						OFFSET 0.000000 0.000000 0.000000
					}
				}
			}
		}
	}
	JOINT lowerback
	{
		OFFSET 0.004439 0.124404 -0.038385
		CHANNELS 3 Zrotation Yrotation Xrotation
		JOINT upperback
		{
			OFFSET 0.004488 0.137956 0.026820
			CHANNELS 3 Zrotation Yrotation Xrotation
			JOINT chest
			{
				OFFSET -0.002265 0.056032 0.002855
				CHANNELS 3 Zrotation Yrotation Xrotation
				JOINT lowerneck
				{
					OFFSET -0.013390 0.211636 -0.033468
					CHANNELS 3 Zrotation Yrotation Xrotation
					JOINT upperneck
					{
						OFFSET 0.010113 0.088937 0.050410
						CHANNELS 3 Zrotation Yrotation Xrotation
						End Site
						{
							OFFSET 0.000000 0.000000 0.000000
						}
					}
				}
				JOINT lclavicle
				{
					OFFSET 0.071702 0.114000 -0.018898
					CHANNELS 3 Zrotation Yrotation Xrotation
					JOINT lshoulder
					{
						OFFSET 0.122921 0.045205 -0.019046
						CHANNELS 3 Zrotation Yrotation Xrotation
						JOINT lelbow
						{
							OFFSET 0.255332 -0.015649 -0.022946
							CHANNELS 3 Zrotation Yrotation Xrotation
							JOINT lwrist
							{
								OFFSET 0.265709 0.012698 -0.007375
								CHANNELS 3 Zrotation Yrotation Xrotation
								End Site
								{
									OFFSET 0.000000 0.000000 0.000000
								}
							}
						}
					}
				}
				JOINT rclavicle
				{
					OFFSET -0.082954 0.112472 -0.023707
					CHANNELS 3 Zrotation Yrotation Xrotation
					JOINT rshoulder
					{
						OFFSET -0.113228 0.046853 -0.008472
						CHANNELS 3 Zrotation Yrotation Xrotation
						JOINT relbow
						{
							OFFSET -0.260127 -0.014369 -0.031269
							CHANNELS 3 Zrotation Yrotation Xrotation
							JOINT rwrist
							{
								OFFSET -0.269108 0.006794 -0.006027
								CHANNELS 3 Zrotation Yrotation Xrotation
								End Site
								{
									OFFSET 0.000000 0.000000 0.000000
								}
							}
						}
					}
				}
			}
		}
	}
}
MOTION
Frames: 10
Frame Time: 0.033333
-1.946321 0.301180 1.029109 88.711484 -1.362390 91.026234 -4.334197 -1.804900 0.204432 -2.046658 -10.466041 6.118545 5.949831 10.805359 -12.568585 0.000000 -0.000000 0.000000 0.815054 -0.417406 -6.637841 1.240293 -0.428194 16.118767 5.954948 -5.633211 -11.067697 0.000000 -0.000000 0.000000 0.596322 -1.888631 7.885059 0.134428 -3.421780 -4.510106 -1.697864 -1.736169 3.868960 4.199932 6.780358 -10.626397 0.088107 -0.646499 5.218680 -26.502019 11.292918 -2.268416 -57.373162 -5.845103 8.343570 9.686213 -32.399624 5.998453 -1.766872 -3.180048 -2.504325 28.903004 -7.229580 -4.420526 58.700487 2.179552 12.246614 -17.053952 16.788639 -8.671205 5.700519 2.659726 -4.515005 
-1.947114 0.301110 1.029151 88.564134 -1.393609 91.016923 -4.398256 -1.873057 0.197536 -2.035483 -10.428670 6.129592 6.160038 11.047194 -12.636846 0.000000 -0.000000 0.000000 0.783431 -0.274130 -6.691732 1.305323 -0.231915 16.147361 6.041650 -5.888397 -11.089663 0.000000 -0.000000 0.000000 0.466168 -1.935512 7.935644 0.224121 -3.361036 -4.585277 -1.660099 -1.721250 3.823435 4.321745 6.506748 -10.259313 -0.134354 -0.672942 5.376294 -26.501955 11.321657 -2.116238 -57.482249 -5.859876 8.414692 9.733205 -32.386227 6.091717 -1.886373 -3.061277 -2.626085 28.736710 -7.190278 -4.245374 58.990016 2.389896 12.303804 -16.971298 16.802126 -8.822246 5.730632 2.725051 -4.866685 
-1.947633 0.301211 1.029193 88.570243 -1.375825 90.983475 -4.376619 -1.881926 0.199135 -2.056821 -10.465080 6.160080 6.072393 10.955016 -12.612910 0.000000 -0.000000 0.000000 0.810974 -0.282875 -6.624347 1.301284 -0.166189 16.037228 6.028381 -5.903667 -11.117216 0.000000 -0.000000 0.000000 0.494265 -1.981255 7.879853 0.228785 -3.447437 -4.589535 -1.706581 -1.734086 3.801407 4.465835 6.616186 -10.159747 0.051642 -0.715868 5.637563 -26.475963 11.372587 -2.058480 -57.470590 -5.814996 8.447044 9.639536 -32.455061 6.204656 -2.003385 -2.990764 -2.602358 28.836995 -7.149201 -4.248678 59.096554 2.361322 12.381680 -17.025976 17.011518 -8.831491 5.879878 2.649893 -4.943987 
-1.948728 0.301291 1.029226 88.392587 -1.355520 90.922733 -4.358377 -1.778207 0.222745 -2.045412 -10.449345 6.098897 6.002091 10.933178 -12.556125 0.000000 -0.000000 0.000000 0.807037 -0.140657 -6.619727 1.290370 -0.267684 16.006680 5.882100 -5.883855 -11.139840 0.000000 -0.000000 0.000000 0.483987 -2.139473 8.048925 0.223349 -3.436248 -4.685695 -1.705721 -1.689048 3.767449 4.434716 6.740548 -10.073555 -0.081326 -0.727967 5.817858 -26.465766 11.460869 -2.082245 -57.455726 -5.799602 8.439437 9.660535 -32.571006 6.155475 -2.055490 -3.096662 -2.659318 28.922014 -7.063988 -4.213734 59.221960 2.483552 12.523081 -16.977485 17.007636 -8.780464 6.003911 2.774380 -4.959852 
-1.949481 0.301430 1.029232 88.439810 -1.322985 90.962845 -4.320640 -1.903703 0.152212 -2.023407 -10.426478 6.061949 5.959576 10.946023 -12.613523 0.000000 -0.000000 0.000000 0.820826 -0.017646 -6.724851 1.327566 -0.324180 16.046584 5.931312 -6.005479 -11.058337 0.000000 -0.000000 0.000000 0.455508 -2.201169 8.056211 0.246843 -3.434246 -4.765596 -1.670560 -1.703923 3.802417 4.466407 6.788574 -10.142566 -0.117428 -0.709348 5.968050 -26.491537 11.518338 -2.237899 -57.441301 -5.852816 8.501025 9.589095 -32.579630 6.126405 -1.989603 -3.106490 -2.625257 28.961469 -7.130663 -4.267144 59.186473 2.458619 12.649848 -16.850407 17.094629 -8.732538 6.048446 2.764721 -4.975639 
-1.949492 0.301373 1.029172 88.438137 -1.296644 90.887958 -4.241879 -1.977788 0.343563 -2.057221 -10.319682 5.889697 5.920335 10.891397 -12.640339 0.000000 -0.000000 0.000000 0.873312 -0.081398 -6.616481 1.347188 -0.200409 16.013002 5.883295 -6.117446 -11.125703 0.000000 -0.000000 0.000000 0.351071 -2.086083 7.977211 0.309062 -3.419011 -4.695277 -1.601642 -1.819540 3.873479 4.666063 6.595492 -10.304695 -0.202145 -0.919240 6.069785 -26.561287 11.531400 -2.200437 -57.359375 -5.998217 8.509591 9.614486 -32.672164 6.113243 -1.879254 -3.216981 -2.625107 29.057595 -7.275849 -4.521673 59.181059 2.288594 12.784056 -16.780590 17.194510 -8.554603 6.057433 2.706337 -4.830244 
-1.949509 0.301553 1.028861 88.430625 -1.278926 90.849878 -4.138343 -1.877941 0.480623 -2.129112 -10.359593 5.732465 5.775891 10.871128 -12.828462 0.000000 -0.000000 0.000000 0.920055 -0.097596 -6.639143 1.274916 -0.184822 16.097744 5.779318 -6.085837 -11.217681 0.000000 -0.000000 0.000000 0.256558 -2.113068 7.935401 0.342965 -3.443076 -4.753788 -1.540441 -1.816572 3.802017 4.624528 6.700626 -9.786809 -0.113883 -0.751123 6.182595 -26.489639 11.583355 -2.144531 -57.357543 -6.056471 8.395678 9.596761 -32.850538 6.007617 -1.944445 -3.189378 -2.517843 28.963464 -7.310504 -4.293986 59.294436 2.260903 12.719487 -16.636547 17.250121 -8.371332 6.385548 2.661846 -4.741133 
-1.949854 0.301907 1.028901 88.576831 -1.297381 90.828546 -4.134782 -1.942513 0.547546 -2.169831 -10.423590 5.578185 5.899694 10.790033 -12.656352 0.000000 -0.000000 0.000000 0.899264 -0.209379 -6.655113 1.268742 -0.158731 16.168256 5.787864 -6.181789 -11.225865 0.000000 -0.000000 0.000000 0.165571 -2.081676 7.895697 0.380539 -3.529836 -4.748958 -1.519957 -1.889773 3.782985 4.707888 6.614056 -9.768745 -0.094324 -0.846953 6.250668 -26.513511 11.512380 -2.173725 -57.251045 -6.183184 8.383887 9.578786 -32.859584 5.955935 -1.954238 -3.046317 -2.537148 29.050031 -7.355187 -4.332074 59.311540 2.149782 12.759486 -16.660811 17.130343 -8.429845 6.381397 2.758427 -4.779485 
-1.950114 0.302122 1.028755 88.636970 -1.264409 90.757924 -4.048601 -1.892877 0.623792 -2.212136 -10.354832 5.554392 5.820173 10.640840 -12.889087 0.000000 -0.000000 0.000000 0.915060 -0.238245 -6.603227 1.274725 -0.205601 16.189593 5.724807 -6.195033 -11.193097 0.000000 -0.000000 0.000000 0.093296 -2.034548 7.832951 0.406748 -3.532339 -4.670450 -1.491800 -1.916012 3.778406 4.629338 6.675174 -9.612533 -0.080857 -0.764341 6.296398 -26.401755 11.447273 -2.050286 -57.328011 -6.391059 8.359473 9.716642 -32.936672 5.935351 -1.865926 -3.078507 -2.758298 29.051979 -7.449872 -4.359060 59.403793 2.088633 12.766435 -16.646376 16.975787 -8.243869 6.382028 2.703953 -4.822853 
-1.950316 0.302451 1.028632 88.768419 -1.259308 90.769441 -4.003365 -1.903039 0.600800 -2.296805 -10.447391 5.515555 5.762732 10.676153 -12.859988 0.000000 -0.000000 0.000000 0.919700 -0.209966 -6.603217 1.268426 -0.241865 16.120228 5.591521 -6.338840 -11.200385 0.000000 -0.000000 0.000000 0.045971 -2.099909 7.705267 0.412784 -3.588612 -4.677328 -1.524860 -1.961341 3.830035 4.732829 6.686233 -9.785933 0.013321 -0.878809 6.351070 -26.452694 11.523742 -2.162339 -57.067016 -6.447654 8.419900 9.670714 -33.193698 5.879749 -1.836412 -3.250510 -2.732448 29.164561 -7.556238 -4.524070 59.347959 1.875114 12.838483 -16.551287 16.956576 -8.146519 6.454791 2.642958 -4.783098 
